# This file uses centimeters as units for non-parametric coordinates.

mtllib siege_door.mtl
g default
v -6.932269 5.736169 2.110000
v -6.932269 5.736170 -2.110000
v -7.180005 5.566974 2.110000
v -7.180005 5.566975 -2.110000
v -4.924072 2.263831 2.110000
v -4.924071 2.263830 -2.110000
v -4.676336 2.433024 2.110000
v -4.676336 2.433025 -2.110000
v -7.065762 5.399700 -2.110000
v -7.065763 5.399698 2.110000
v -6.818026 5.568894 2.110000
v -6.818027 5.568894 -2.110000
v -7.180004 5.566974 -1.470126
v -7.666382 4.989496 -1.470126
v -5.418371 1.926242 -1.470126
v -4.676335 2.433024 -1.470126
v -6.818026 5.568895 -1.470126
v -6.932269 5.736169 -1.470126
v -7.180006 5.566974 1.503785
v -7.666382 4.989496 1.503785
v -5.418372 1.926242 1.503785
v -4.676336 2.433025 1.503785
v -6.818027 5.568895 1.503785
v -6.932269 5.736169 1.503785
v -7.180005 5.566974 -0.000301
v -7.666382 4.989497 -0.000301
v -5.418371 1.926241 -0.000301
v -4.676336 2.433025 -0.000301
v -6.818026 5.568894 -0.000301
v -6.932269 5.736169 -0.000301
v -7.180005 5.566974 -0.750151
v -7.065762 5.399699 -0.750151
v -4.924072 2.263831 -0.750151
v -4.676336 2.433024 -0.750151
v -6.818026 5.568895 -0.750151
v -6.932269 5.736169 -0.750151
v -7.065762 5.399699 0.690252
v -7.180005 5.566974 0.690252
v -6.932269 5.736169 0.690252
v -6.818027 5.568895 0.690252
v -4.676336 2.433025 0.690252
v -4.924072 2.263831 0.690252
vt 0.375000 0.000000
vt 0.625000 0.000000
vt 0.375000 0.250000
vt 0.625000 0.250000
vt 0.375000 0.500000
vt 0.625000 0.500000
vt 0.375000 0.750000
vt 0.625000 0.750000
vt 0.375000 1.000000
vt 0.625000 1.000000
vt 0.875000 0.000000
vt 0.875000 0.250000
vt 0.125000 0.000000
vt 0.125000 0.250000
vt 0.625000 0.278727
vt 0.653727 0.250000
vt 0.346273 0.250000
vt 0.375000 0.278727
vt 0.346273 0.000000
vt 0.375000 0.971273
vt 0.625000 0.971273
vt 0.653727 0.000000
vt 0.598542 0.250000
vt 0.598542 0.278727
vt 0.598542 0.500000
vt 0.598542 0.750000
vt 0.598542 0.971273
vt 0.598542 0.000000
vt 0.598542 1.000000
vt 0.398226 0.250000
vt 0.398226 0.278727
vt 0.398226 0.500000
vt 0.398226 0.750000
vt 0.398226 0.971273
vt 0.398226 0.000000
vt 0.398226 1.000000
vt 0.500018 0.250000
vt 0.500018 0.278727
vt 0.500018 0.500000
vt 0.500018 0.750000
vt 0.500018 0.971273
vt 0.500018 0.000000
vt 0.500018 1.000000
vt 0.547351 0.250000
vt 0.547351 0.278727
vt 0.547351 0.500000
vt 0.547351 0.750000
vt 0.547351 0.971273
vt 0.547351 0.000000
vt 0.547351 1.000000
vt 0.451732 0.278727
vt 0.451732 0.250000
vt 0.451732 0.000000
vt 0.451732 1.000000
vt 0.451732 0.971273
vt 0.451732 0.750000
vt 0.451732 0.500000
vn -0.563981 0.825788 0.000001
vn -0.563982 0.825787 0.000000
vn -0.563982 0.825787 0.000000
vn -0.563981 0.825788 0.000001
vn -0.858705 0.429071 0.280221
vn -0.858705 0.429071 0.280221
vn -0.858705 0.429071 0.280221
vn -0.858705 0.429071 0.280221
vn 0.563981 -0.825788 0.000001
vn 0.563981 -0.825788 0.000000
vn 0.563981 -0.825788 0.000000
vn 0.563981 -0.825788 0.000001
vn 0.825786 0.563983 -0.000000
vn 0.825786 0.563983 0.000000
vn 0.825786 0.563983 -0.000000
vn 0.825786 0.563984 0.000000
vn 0.000001 -0.000001 -1.000000
vn 0.000000 -0.000000 -1.000000
vn 0.000000 -0.000000 -1.000000
vn 0.000001 -0.000001 -1.000000
vn 0.000000 0.000000 1.000000
vn -0.000001 0.000002 1.000000
vn -0.000001 0.000002 1.000000
vn 0.000000 0.000000 1.000000
vn -0.550770 -0.390009 0.737933
vn -0.833461 -0.552512 -0.008609
vn -0.816107 -0.577899 0.001092
vn -0.550770 -0.390009 0.737933
vn 0.000000 0.000000 1.000000
vn 0.000000 0.000000 1.000000
vn 0.825786 0.563983 -0.000000
vn 0.825786 0.563983 0.000000
vn 0.000000 0.000000 -1.000000
vn 0.000000 0.000000 -1.000000
vn -0.862179 0.430809 -0.266554
vn -0.862179 0.430809 -0.266554
vn -0.862179 0.430809 -0.266554
vn -0.862179 0.430809 -0.266554
vn -0.816108 -0.577900 -0.000455
vn -0.831185 -0.555941 0.007846
vn -0.566805 -0.401364 -0.719472
vn -0.566805 -0.401364 -0.719472
vn 0.563981 -0.825788 0.000000
vn 0.563981 -0.825788 0.000000
vn 0.563982 -0.825787 -0.000000
vn 0.563982 -0.825787 -0.000000
vn 0.825786 0.563983 -0.000000
vn 0.825786 0.563983 -0.000000
vn 0.825786 0.563983 -0.000000
vn 0.825786 0.563983 -0.000000
vn 0.825786 0.563984 -0.000000
vn 0.825786 0.563984 -0.000000
vn -0.563983 0.825787 0.000000
vn -0.563983 0.825787 0.000000
vn -0.563983 0.825786 0.000002
vn -0.563983 0.825786 0.000002
vn -0.894544 0.446980 0.000000
vn -0.894544 0.446981 -0.000000
vn -0.843791 -0.536671 -0.000608
vn -0.865565 -0.500796 0.000000
vn -0.816108 -0.577899 0.000000
vn -0.816108 -0.577899 0.000305
vn 0.563982 -0.825787 0.000000
vn 0.563982 -0.825787 0.000000
vn 0.563982 -0.825787 0.000000
vn 0.563982 -0.825787 0.000000
vn 0.825786 0.563983 0.000000
vn 0.825786 0.563983 0.000000
vn 0.825786 0.563983 0.000000
vn 0.825786 0.563983 0.000000
vn 0.825786 0.563983 -0.000000
vn 0.825786 0.563984 -0.000000
vn -0.563983 0.825787 0.000000
vn -0.563983 0.825787 0.000000
vn -0.563983 0.825786 -0.000000
vn -0.563983 0.825786 -0.000000
vn -0.894543 0.446981 -0.000001
vn -0.865565 -0.500796 -0.000000
vn -0.816108 -0.577900 -0.000000
vn 0.563981 -0.825787 0.000000
vn 0.563981 -0.825787 0.000000
vn 0.825786 0.563983 -0.000000
vn 0.825786 0.563983 -0.000000
vn 0.825786 0.563984 0.000000
vn -0.563983 0.825787 -0.000001
vn -0.563983 0.825787 -0.000001
vn -0.868688 0.434062 0.238687
vn -0.874103 0.436765 -0.212555
s 1
g tower_door
usemtl initialShadingGroup
f 1/1/1 24/35/2 19/30/3 3/3/4
s off
f 3/3/5 19/30/6 20/31/7 10/18/8
s 2
f 5/5/9 21/32/10 22/33/11 7/7/12
s 3
f 11/20/13 23/34/14 24/36/15 1/9/16
s 4
f 2/2/17 12/22/18 9/16/19 4/4/20
s 5
f 11/19/21 1/1/22 3/3/23 10/17/24
s 6
f 10/18/25 20/31/26 21/32/27 5/5/28
s 5
f 7/13/29 11/19/21 10/17/24 5/14/30
s 3
f 7/7/31 22/33/32 23/34/14 11/20/13
s 4
f 9/16/19 12/22/18 8/11/33 6/12/34
s off
f 13/23/35 4/4/36 9/15/37 14/24/38
s 6
f 15/25/39 14/24/40 9/15/41 6/6/42
s 2
f 16/26/43 15/25/44 6/6/45 8/8/46
s 3
f 17/27/47 16/26/48 8/8/49 12/21/50
f 18/29/51 17/27/47 12/21/50 2/10/52
s 1
f 13/23/53 18/28/54 2/2/55 4/4/56
s 6
f 38/52/57 25/37/58 26/38/59 37/51/60
f 42/57/61 37/51/60 26/38/59 27/39/62
s 2
f 41/56/63 42/57/64 27/39/65 28/40/66
s 3
f 40/55/67 41/56/68 28/40/69 29/41/70
f 39/54/71 40/55/67 29/41/70 30/43/72
s 1
f 38/52/73 39/53/74 30/42/75 25/37/76
s 6
f 25/37/58 31/44/77 32/45/78 26/38/59
f 27/39/62 26/38/59 32/45/78 33/46/79
s 2
f 28/40/66 27/39/65 33/46/80 34/47/81
s 3
f 29/41/70 28/40/69 34/47/82 35/48/83
f 30/43/72 29/41/70 35/48/83 36/50/84
s 1
f 25/37/76 30/42/75 36/49/85 31/44/86
s 6
f 31/44/77 13/23/87 14/24/40 32/45/78
f 33/46/79 32/45/78 14/24/40 15/25/39
s 2
f 34/47/81 33/46/80 15/25/44 16/26/43
s 3
f 35/48/83 34/47/82 16/26/48 17/27/47
f 36/50/84 35/48/83 17/27/47 18/29/51
s 1
f 31/44/86 36/49/85 18/28/54 13/23/53
s 6
f 19/30/88 38/52/57 37/51/60 20/31/26
s 1
f 19/30/3 24/35/2 39/53/74 38/52/73
s 3
f 24/36/15 23/34/14 40/55/67 39/54/71
f 23/34/14 22/33/32 41/56/68 40/55/67
s 2
f 22/33/11 21/32/10 42/57/64 41/56/63
s 6
f 21/32/27 20/31/26 37/51/60 42/57/61
