# This file uses centimeters as units for non-parametric coordinates.

mtllib siege_door.mtl
g default
v -2.341325 7.151723 2.181251
v -2.341325 7.151724 -2.206904
v -2.501868 7.151724 2.181251
v -2.501868 7.151724 -2.206904
v -2.677135 3.358204 2.181252
v -2.677135 3.358203 -2.206904
v -2.341326 3.131117 2.181252
v -2.341325 3.131118 -2.206904
v -2.677135 6.949159 -2.206904
v -2.677136 6.949159 2.181252
v -2.341325 6.949159 2.181252
v -2.341325 6.949159 -2.206904
v -2.501867 7.151724 -1.654106
v -3.005638 6.935941 -1.654106
v -2.933977 3.612586 -1.654106
v -2.341325 3.131117 -1.654106
v -2.341325 6.949160 -1.654106
v -2.341325 7.151723 -1.654106
v -2.501868 7.151724 1.662112
v -3.005638 6.935941 1.662112
v -2.933977 3.612586 1.662112
v -2.341325 3.131118 1.662112
v -2.341325 6.949160 1.662112
v -2.341325 7.151724 1.662112
v -2.501868 7.151724 -0.013127
v -3.005638 6.935942 -0.013127
v -2.933977 3.612585 -0.013127
v -2.341325 3.131118 -0.013127
v -2.341325 6.949159 -0.013127
v -2.341325 7.151724 -0.013127
v -2.501868 7.151724 -0.762977
v -2.654712 7.003735 -0.762977
v -2.641325 3.343109 -0.762977
v -2.341325 3.131118 -0.762977
v -2.341325 6.949159 -0.762977
v -2.341325 7.151724 -0.762977
v -2.654712 7.003735 0.677426
v -2.501868 7.151724 0.677426
v -2.341325 7.151724 0.677426
v -2.341325 6.949160 0.677426
v -2.341325 3.131118 0.677426
v -2.641325 3.343109 0.677426
v -2.341325 6.949159 2.473064
v -2.341325 7.151723 2.473064
v -2.501868 7.151724 2.473064
v -2.501869 6.949159 2.473064
v -2.341326 3.131117 2.473064
v -2.501868 3.170283 2.473064
v -2.341325 6.949159 -2.498716
v -2.341325 7.151724 -2.498717
v -2.501868 6.949159 -2.498716
v -2.501868 7.151724 -2.498717
v -2.341325 3.131118 -2.498716
v -2.501868 3.170281 -2.498716
v -3.141326 7.138458 2.300172
v -3.098072 7.078859 2.300172
v -3.098072 7.078859 2.361481
v -3.141326 7.138458 2.361481
v -3.141325 7.138458 -2.325824
v -3.098071 7.078860 -2.325824
v -3.141325 7.138458 -2.387134
v -3.098071 7.078860 -2.387134
v -2.426440 7.551724 2.337150
v -2.426440 7.551724 -2.362803
v -2.495660 3.168868 -2.206904
v -2.493956 3.169058 -1.654106
v -2.491350 3.172506 -0.762977
v -2.489506 3.177339 -0.013127
v -2.491350 3.172507 0.677426
v -2.493956 3.169059 1.662112
v -2.495661 3.168868 2.181252
vt 0.657451 0.994579
vt 0.657451 0.939728
vt 0.674414 0.939728
vt 0.674414 0.994579
vt 0.657451 0.835687
vt 0.674414 0.835687
vt 0.727642 0.939728
vt 0.692933 0.994579
vt 0.657451 0.762725
vt 0.674414 0.762725
vt 0.690563 0.835687
vt 0.657451 0.683497
vt 0.674414 0.683497
vt 0.727642 0.762725
vt 0.657451 0.589341
vt 0.674414 0.589341
vt 0.690563 0.683497
vt 0.657451 0.530934
vt 0.674414 0.530934
vt 0.727642 0.589341
vt 0.692933 0.530934
vt 0.839759 0.496470
vt 0.839759 0.441619
vt 0.861162 0.441619
vt 0.861162 0.496470
vt 0.436351 0.496470
vt 0.436351 0.441619
vt 0.839759 0.337578
vt 0.861162 0.337578
vt 0.861162 0.527303
vt 0.839759 0.527303
vt 0.436351 0.337578
vt 0.436351 0.527303
vt 0.839759 0.264616
vt 0.861162 0.264616
vt 0.903425 0.512942
vt 0.436351 0.264616
vt 0.839759 0.185388
vt 0.861162 0.185388
vt 0.436351 0.185388
vt 0.839759 0.091232
vt 0.861162 0.091232
vt 0.436351 0.091232
vt 0.839759 0.032825
vt 0.861162 0.032824
vt 0.436351 0.032825
vt 0.839759 0.001992
vt 0.861162 0.001992
vt 0.436351 0.001992
vt 0.903425 0.016352
vt 0.823331 0.934342
vt 0.840293 0.934342
vt 0.840293 0.955745
vt 0.823331 0.955745
vt 0.840293 0.535071
vt 0.823331 0.530934
vt 0.903287 0.948046
vt 0.907857 0.954343
vt 0.832324 0.998008
vt 0.858812 0.554927
vt 0.858812 0.934342
vt 0.733223 0.573197
vt 0.750185 0.573197
vt 0.750186 0.594600
vt 0.733223 0.594600
vt 0.742216 0.530934
vt 0.817750 0.574599
vt 0.813179 0.580896
vt 0.750185 0.993870
vt 0.733223 0.998008
vt 0.768704 0.594600
vt 0.768704 0.974014
vt 0.030804 0.496470
vt 0.032200 0.441619
vt 0.383341 0.441619
vt 0.410218 0.496470
vt 0.025037 0.337578
vt 0.411813 0.337578
vt 0.430203 0.441619
vt 0.430223 0.496470
vt 0.032200 0.264616
vt 0.383341 0.264616
vt 0.429839 0.337578
vt 0.430074 0.527303
vt 0.025037 0.185388
vt 0.411813 0.185388
vt 0.429328 0.264616
vt 0.032200 0.091232
vt 0.383341 0.091232
vt 0.429839 0.185388
vt 0.030804 0.032825
vt 0.410218 0.032825
vt 0.430203 0.091232
vt 0.430223 0.032825
vt 0.430074 0.001992
vt 0.630467 0.530934
vt 0.651870 0.549452
vt 0.638166 0.593928
vt 0.631869 0.598498
vt 0.488662 0.579979
vt 0.457830 0.598497
vt 0.469619 0.535504
vt 0.476097 0.535504
vt 0.476097 0.530933
vt 0.469619 0.530933
vt 0.594054 0.530934
vt 0.624886 0.530934
vt 0.612321 0.598498
vt 0.605843 0.598498
vt 0.530657 0.549452
vt 0.552059 0.530934
vt 0.550658 0.598498
vt 0.544361 0.593927
vt 0.494243 0.530934
vt 0.525075 0.530934
vt 0.513286 0.598498
vt 0.506808 0.598498
vt 0.588473 0.598498
vt 0.557640 0.579979
vt 0.570205 0.535504
vt 0.576683 0.535504
vt 0.570205 0.530933
vt 0.576683 0.530933
vt 0.435286 0.530934
vt 0.452248 0.530934
vt 0.444279 0.573197
vt 0.370747 0.573197
vt 0.339915 0.573197
vt 0.354275 0.530934
vt 0.393291 0.573197
vt 0.376328 0.573197
vt 0.385321 0.530934
vt 0.429705 0.573197
vt 0.398872 0.573197
vt 0.415344 0.530934
vt 0.018775 0.032825
vt 0.002468 0.032825
vt 0.001812 0.001992
vt 0.018775 0.001992
vt 0.018775 0.091232
vt 0.002648 0.091232
vt 0.018775 0.185388
vt 0.002924 0.185388
vt 0.018775 0.264616
vt 0.003118 0.264616
vt 0.018775 0.337578
vt 0.002924 0.337578
vt 0.018775 0.441619
vt 0.002648 0.441619
vt 0.002468 0.496470
vt 0.018775 0.496470
vt 0.001812 0.527303
vt 0.018775 0.527303
vn 0.889221 0.441585 -0.119530
vn 0.000003 1.000000 0.000000
vn -0.361903 0.932107 0.014250
vn -0.391814 0.915961 -0.086584
vn -0.998156 0.055191 -0.025272
vn -0.883556 0.030687 0.467318
vn -0.879431 -0.074170 0.470213
vn -0.998250 -0.058935 -0.004774
vn -0.611014 -0.791593 -0.006561
vn -0.578880 -0.815413 0.000793
vn 1.000000 -0.000000 0.000000
vn 1.000000 -0.000000 0.000000
vn 1.000000 0.000000 0.000000
vn 0.877148 -0.000000 -0.480220
vn -0.035095 -0.071782 -0.996803
vn -0.326803 0.605384 -0.725748
vn 0.856530 0.157518 -0.491472
vn 0.856529 0.157519 0.491473
vn -0.326800 0.605385 0.725748
vn -0.035094 -0.071781 0.996803
vn 0.877148 -0.000000 0.480220
vn -0.550891 -0.042212 0.833509
vn 0.904842 -0.037691 0.424076
vn 1.000000 -0.000000 0.000000
vn 1.000000 -0.000000 0.000000
vn -0.550894 -0.042212 -0.833507
vn 0.904841 -0.037691 -0.424078
vn -0.363316 0.931548 -0.014819
vn -0.391627 0.916375 0.082978
vn -0.890978 0.032806 -0.452859
vn -0.998158 0.054376 0.026889
vn -0.998277 -0.057906 0.009466
vn -0.885463 -0.075348 -0.458561
vn -0.610752 -0.791793 0.006825
vn -0.580243 -0.814443 -0.000754
vn 1.000000 -0.000000 -0.000000
vn 1.000000 -0.000000 -0.000000
vn 1.000000 -0.000000 -0.000000
vn 1.000000 -0.000000 -0.000000
vn 1.000000 0.000001 -0.000000
vn 0.886337 0.448436 0.115382
vn 0.000001 1.000000 0.000000
vn -0.348713 0.937230 -0.000000
vn -0.348712 0.937230 -0.000000
vn -0.998746 0.050052 0.000570
vn -0.909465 0.095521 0.404659
vn -0.919042 -0.126062 0.373457
vn -0.998382 -0.056803 0.002477
vn -0.613399 -0.789765 -0.003736
vn -0.613607 -0.789612 0.000001
vn 1.000000 -0.000000 -0.000000
vn 1.000000 -0.000000 0.000000
vn 1.000000 -0.000000 0.000000
vn 1.000000 -0.000000 -0.000000
vn 1.000000 -0.000000 -0.000000
vn 1.000000 0.000001 -0.000000
vn 0.000001 1.000000 -0.000000
vn 0.000000 1.000000 -0.000000
vn -0.348712 0.937230 -0.000000
vn -0.921053 0.095007 -0.377670
vn -0.928862 -0.123965 -0.349068
vn -0.613397 -0.789765 0.003814
vn 1.000000 -0.000000 0.000000
vn 1.000000 -0.000000 0.000000
vn 1.000000 0.000001 0.000000
vn 0.000001 1.000000 -0.000000
vn -0.941024 0.093644 0.325121
vn -0.945854 -0.118605 0.302149
vn -0.950260 0.092745 -0.297328
vn -0.953860 -0.116229 -0.276844
vn -0.116330 0.936022 -0.332158
vn -0.365790 -0.639093 -0.676578
vn -0.287487 -0.596433 0.749412
vn -0.116298 0.919615 0.375211
vn 1.000000 -0.000000 0.000000
vn -0.857261 -0.000000 0.514883
vn -0.365790 -0.639093 0.676578
vn -0.116328 0.936025 0.332153
vn -0.116297 0.919617 -0.375206
vn -0.287486 -0.596437 -0.749410
vn -0.857261 0.000000 -0.514883
vn -0.006956 0.999947 0.007574
vn -0.006961 0.999947 -0.007574
vn -0.238662 -0.971103 0.000407
vn -0.248105 -0.968732 0.001585
vn -0.266473 -0.963839 0.002787
vn -0.281875 -0.959451 0.000000
vn -0.265204 -0.964189 -0.002729
vn -0.248637 -0.968596 -0.001523
vn -0.238637 -0.971109 -0.000425
s 1
g tower_door
usemtl initialShadingGroup
f 1/1/1 24/2/2 19/3/3 3/4/4
f 3/4/4 19/3/3 20/7/5 10/8/6
f 5/76/7 21/75/8 70/79/9 71/80/10
f 11/22/11 23/23/12 24/24/13 1/25/1
f 49/51/14 51/52/15 52/53/16 50/54/17
f 44/62/18 45/63/19 46/64/20 43/65/21
f 10/73/6 20/74/5 21/75/8 5/76/7
f 43/65/21 46/64/20 48/69/22 47/70/23
f 7/26/24 22/27/25 23/23/12 11/22/11
f 54/55/26 51/52/15 49/51/14 53/56/27
f 13/16/28 4/19/29 9/21/30 14/20/31
f 15/89/32 14/88/31 9/91/30 6/92/33
f 66/93/34 15/89/32 6/92/33 65/94/35
f 17/41/36 16/43/37 8/46/38 12/44/39
f 18/42/40 17/41/36 12/44/39 2/45/41
f 13/16/28 18/15/42 2/18/41 4/19/29
f 38/6/43 25/10/44 26/14/45 37/11/46
f 42/78/47 37/77/46 26/81/45 27/82/48
f 69/83/49 42/78/47 27/82/48 68/87/50
f 40/28/51 41/32/52 28/37/53 29/34/54
f 39/29/55 40/28/51 29/34/54 30/35/56
f 38/6/43 39/5/57 30/9/58 25/10/44
f 25/10/44 31/13/59 32/17/60 26/14/45
f 27/82/48 26/81/45 32/85/60 33/86/61
f 68/87/50 27/82/48 33/86/61 67/90/62
f 29/34/54 28/37/53 34/40/63 35/38/64
f 30/35/56 29/34/54 35/38/64 36/39/65
f 25/10/44 30/9/58 36/12/66 31/13/59
f 31/13/59 13/16/28 14/20/31 32/17/67
f 33/86/68 32/85/67 14/88/31 15/89/32
f 67/90/62 33/86/68 15/89/32 66/93/34
f 35/38/64 34/40/63 16/43/37 17/41/36
f 36/39/65 35/38/64 17/41/36 18/42/40
f 31/13/59 36/12/66 18/15/42 13/16/28
f 19/3/3 38/6/43 37/11/69 20/7/5
f 19/3/3 24/2/2 39/5/57 38/6/43
f 24/24/13 23/23/12 40/28/51 39/29/55
f 23/23/12 22/27/25 41/32/52 40/28/51
f 70/79/9 21/75/8 42/78/70 69/83/49
f 21/75/8 20/74/5 37/77/69 42/78/70
f 11/22/11 1/25/1 44/30/18 43/31/21
f 55/104/71 56/103/72 57/102/73 58/105/74
f 7/26/75 11/22/11 43/31/21 47/33/23
f 10/71/6 5/72/7 48/69/22 46/64/76
f 5/76/7 71/80/10 48/84/22
f 2/45/41 12/44/39 49/47/14 50/48/17
f 60/120/77 59/122/78 61/123/79 62/121/80
f 12/44/39 8/46/38 53/49/27 49/47/14
f 65/94/35 6/92/33 54/95/26
f 6/60/33 9/61/30 51/52/81 54/55/26
f 3/96/4 10/97/6 56/98/72 55/99/71
f 10/100/6 46/101/20 57/102/73 56/103/72
f 46/64/20 45/63/19 58/67/74 57/68/73
f 45/106/19 3/107/4 55/108/71 58/109/74
f 9/110/30 4/111/29 59/112/78 60/113/77
f 4/114/29 52/115/16 61/116/79 59/117/78
f 52/53/16 51/52/15 62/57/80 61/58/79
f 51/118/15 9/119/30 60/120/77 62/121/80
f 1/124/1 3/125/4 63/126/82
f 3/127/4 45/128/19 63/129/82
f 45/63/19 44/62/18 63/66/82
f 44/30/18 1/25/1 63/36/82
f 4/130/29 2/131/41 64/132/83
f 2/45/41 50/48/17 64/50/83
f 50/54/17 52/53/16 64/59/83
f 52/133/16 4/134/29 64/135/83
f 8/136/84 65/137/35 54/138/26 53/139/27
f 16/140/85 66/141/34 65/137/35 8/136/84
f 34/142/86 67/143/62 66/141/34 16/140/85
f 28/144/87 68/145/50 67/143/62 34/142/86
f 41/146/88 69/147/49 68/145/50 28/144/87
f 22/148/89 70/149/9 69/147/49 41/146/88
f 71/150/10 70/149/9 22/148/89 7/151/90
f 48/152/22 71/150/10 7/151/90 47/153/23
